solid OpenSCAD_Model
  facet normal -0.40674 -0.913544 0
    outer loop
      vertex -12.5 -21.6506 10
      vertex -7.72542 -23.7764 40
      vertex -12.5 -21.6506 40
    endloop
  endfacet
  facet normal -0.40674 -0.913544 -0
    outer loop
      vertex -7.72542 -23.7764 40
      vertex -12.5 -21.6506 10
      vertex -7.72542 -23.7764 10
    endloop
  endfacet
  facet normal -0.951054 -0.309026 0
    outer loop
      vertex -22.8386 -10.1684 10
      vertex -24.4537 -5.19779 40
      vertex -24.4537 -5.19779 10
    endloop
  endfacet
  facet normal -0.951054 -0.309026 0
    outer loop
      vertex -24.4537 -5.19779 40
      vertex -22.8386 -10.1684 10
      vertex -22.8386 -10.1684 40
    endloop
  endfacet
  facet normal 0.951054 0.309026 0
    outer loop
      vertex 24.4537 5.19779 40
      vertex 22.8386 10.1684 10
      vertex 22.8386 10.1684 40
    endloop
  endfacet
  facet normal 0.951054 0.309026 0
    outer loop
      vertex 22.8386 10.1684 10
      vertex 24.4537 5.19779 40
      vertex 24.4537 5.19779 10
    endloop
  endfacet
  facet normal 0.994522 0.104527 0
    outer loop
      vertex 25 0 40
      vertex 24.4537 5.19779 10
      vertex 24.4537 5.19779 40
    endloop
  endfacet
  facet normal 0.994522 0.104527 0
    outer loop
      vertex 24.4537 5.19779 10
      vertex 25 0 40
      vertex 25 0 10
    endloop
  endfacet
  facet normal 0.866026 0.5 0
    outer loop
      vertex 22.8386 10.1684 40
      vertex 20.2254 14.6946 10
      vertex 20.2254 14.6946 40
    endloop
  endfacet
  facet normal 0.866026 0.5 0
    outer loop
      vertex 20.2254 14.6946 10
      vertex 22.8386 10.1684 40
      vertex 22.8386 10.1684 10
    endloop
  endfacet
  facet normal 0.58778 -0.809021 0
    outer loop
      vertex 12.5 -21.6506 10
      vertex 16.7283 -18.5786 40
      vertex 12.5 -21.6506 40
    endloop
  endfacet
  facet normal 0.58778 -0.809021 0
    outer loop
      vertex 16.7283 -18.5786 40
      vertex 12.5 -21.6506 10
      vertex 16.7283 -18.5786 10
    endloop
  endfacet
  facet normal 0.40674 0.913544 -0
    outer loop
      vertex 12.5 21.6506 10
      vertex 7.72542 23.7764 40
      vertex 12.5 21.6506 40
    endloop
  endfacet
  facet normal 0.40674 0.913544 0
    outer loop
      vertex 7.72542 23.7764 40
      vertex 12.5 21.6506 10
      vertex 7.72542 23.7764 10
    endloop
  endfacet
  facet normal 0.994522 -0.104527 0
    outer loop
      vertex 24.4537 -5.19779 40
      vertex 25 0 10
      vertex 25 0 40
    endloop
  endfacet
  facet normal 0.994522 -0.104527 0
    outer loop
      vertex 25 0 10
      vertex 24.4537 -5.19779 40
      vertex 24.4537 -5.19779 10
    endloop
  endfacet
  facet normal 0.743151 0.669123 0
    outer loop
      vertex 20.2254 14.6946 40
      vertex 16.7283 18.5786 10
      vertex 16.7283 18.5786 40
    endloop
  endfacet
  facet normal 0.743151 0.669123 0
    outer loop
      vertex 16.7283 18.5786 10
      vertex 20.2254 14.6946 40
      vertex 20.2254 14.6946 10
    endloop
  endfacet
  facet normal -0.866026 0.5 0
    outer loop
      vertex -22.8386 10.1684 10
      vertex -20.2254 14.6946 40
      vertex -20.2254 14.6946 10
    endloop
  endfacet
  facet normal -0.866026 0.5 0
    outer loop
      vertex -20.2254 14.6946 40
      vertex -22.8386 10.1684 10
      vertex -22.8386 10.1684 40
    endloop
  endfacet
  facet normal 0.743151 -0.669123 0
    outer loop
      vertex 16.7283 -18.5786 40
      vertex 20.2254 -14.6946 10
      vertex 20.2254 -14.6946 40
    endloop
  endfacet
  facet normal 0.743151 -0.669123 0
    outer loop
      vertex 20.2254 -14.6946 10
      vertex 16.7283 -18.5786 40
      vertex 16.7283 -18.5786 10
    endloop
  endfacet
  facet normal -0.743151 0.669123 0
    outer loop
      vertex -20.2254 14.6946 10
      vertex -16.7283 18.5786 40
      vertex -16.7283 18.5786 10
    endloop
  endfacet
  facet normal -0.743151 0.669123 0
    outer loop
      vertex -16.7283 18.5786 40
      vertex -20.2254 14.6946 10
      vertex -20.2254 14.6946 40
    endloop
  endfacet
  facet normal 0.866026 -0.5 0
    outer loop
      vertex 20.2254 -14.6946 40
      vertex 22.8386 -10.1684 10
      vertex 22.8386 -10.1684 40
    endloop
  endfacet
  facet normal 0.866026 -0.5 0
    outer loop
      vertex 22.8386 -10.1684 10
      vertex 20.2254 -14.6946 40
      vertex 20.2254 -14.6946 10
    endloop
  endfacet
  facet normal -0.58778 0.809021 0
    outer loop
      vertex -12.5 21.6506 10
      vertex -16.7283 18.5786 40
      vertex -12.5 21.6506 40
    endloop
  endfacet
  facet normal -0.58778 0.809021 0
    outer loop
      vertex -16.7283 18.5786 40
      vertex -12.5 21.6506 10
      vertex -16.7283 18.5786 10
    endloop
  endfacet
  facet normal 0 0 1
    outer loop
      vertex 24.4537 5.19779 40
      vertex 24.4537 -5.19779 40
      vertex 25 0 40
    endloop
  endfacet
  facet normal 0 0 1
    outer loop
      vertex 22.8386 10.1684 40
      vertex 24.4537 -5.19779 40
      vertex 24.4537 5.19779 40
    endloop
  endfacet
  facet normal 0 0 1
    outer loop
      vertex 22.8386 10.1684 40
      vertex 22.8386 -10.1684 40
      vertex 24.4537 -5.19779 40
    endloop
  endfacet
  facet normal 0 0 1
    outer loop
      vertex 20.2254 14.6946 40
      vertex 22.8386 -10.1684 40
      vertex 22.8386 10.1684 40
    endloop
  endfacet
  facet normal 0 0 1
    outer loop
      vertex 20.2254 14.6946 40
      vertex 20.2254 -14.6946 40
      vertex 22.8386 -10.1684 40
    endloop
  endfacet
  facet normal 0 0 1
    outer loop
      vertex 16.7283 18.5786 40
      vertex 20.2254 -14.6946 40
      vertex 20.2254 14.6946 40
    endloop
  endfacet
  facet normal 0 0 1
    outer loop
      vertex 16.7283 18.5786 40
      vertex 16.7283 -18.5786 40
      vertex 20.2254 -14.6946 40
    endloop
  endfacet
  facet normal 0 0 1
    outer loop
      vertex 12.5 21.6506 40
      vertex 16.7283 -18.5786 40
      vertex 16.7283 18.5786 40
    endloop
  endfacet
  facet normal 0 0 1
    outer loop
      vertex 12.5 21.6506 40
      vertex 12.5 -21.6506 40
      vertex 16.7283 -18.5786 40
    endloop
  endfacet
  facet normal 0 0 1
    outer loop
      vertex 7.72542 23.7764 40
      vertex 12.5 -21.6506 40
      vertex 12.5 21.6506 40
    endloop
  endfacet
  facet normal 0 0 1
    outer loop
      vertex 7.72542 23.7764 40
      vertex 7.72542 -23.7764 40
      vertex 12.5 -21.6506 40
    endloop
  endfacet
  facet normal 0 0 1
    outer loop
      vertex 2.61321 24.863 40
      vertex 7.72542 -23.7764 40
      vertex 7.72542 23.7764 40
    endloop
  endfacet
  facet normal 0 0 1
    outer loop
      vertex 2.61321 24.863 40
      vertex 2.61321 -24.863 40
      vertex 7.72542 -23.7764 40
    endloop
  endfacet
  facet normal -0 0 1
    outer loop
      vertex -2.61321 24.863 40
      vertex 2.61321 -24.863 40
      vertex 2.61321 24.863 40
    endloop
  endfacet
  facet normal 0 0 1
    outer loop
      vertex -2.61321 24.863 40
      vertex -2.61321 -24.863 40
      vertex 2.61321 -24.863 40
    endloop
  endfacet
  facet normal -0 0 1
    outer loop
      vertex -7.72542 23.7764 40
      vertex -2.61321 -24.863 40
      vertex -2.61321 24.863 40
    endloop
  endfacet
  facet normal 0 0 1
    outer loop
      vertex -7.72542 23.7764 40
      vertex -7.72542 -23.7764 40
      vertex -2.61321 -24.863 40
    endloop
  endfacet
  facet normal -0 0 1
    outer loop
      vertex -12.5 21.6506 40
      vertex -7.72542 -23.7764 40
      vertex -7.72542 23.7764 40
    endloop
  endfacet
  facet normal 0 0 1
    outer loop
      vertex -12.5 21.6506 40
      vertex -12.5 -21.6506 40
      vertex -7.72542 -23.7764 40
    endloop
  endfacet
  facet normal -0 0 1
    outer loop
      vertex -16.7283 18.5786 40
      vertex -12.5 -21.6506 40
      vertex -12.5 21.6506 40
    endloop
  endfacet
  facet normal 0 0 1
    outer loop
      vertex -16.7283 18.5786 40
      vertex -16.7283 -18.5786 40
      vertex -12.5 -21.6506 40
    endloop
  endfacet
  facet normal -0 0 1
    outer loop
      vertex -20.2254 14.6946 40
      vertex -16.7283 -18.5786 40
      vertex -16.7283 18.5786 40
    endloop
  endfacet
  facet normal 0 0 1
    outer loop
      vertex -20.2254 14.6946 40
      vertex -20.2254 -14.6946 40
      vertex -16.7283 -18.5786 40
    endloop
  endfacet
  facet normal -0 0 1
    outer loop
      vertex -22.8386 10.1684 40
      vertex -20.2254 -14.6946 40
      vertex -20.2254 14.6946 40
    endloop
  endfacet
  facet normal 0 0 1
    outer loop
      vertex -22.8386 10.1684 40
      vertex -22.8386 -10.1684 40
      vertex -20.2254 -14.6946 40
    endloop
  endfacet
  facet normal -0 0 1
    outer loop
      vertex -24.4537 5.19779 40
      vertex -22.8386 -10.1684 40
      vertex -22.8386 10.1684 40
    endloop
  endfacet
  facet normal 0 0 1
    outer loop
      vertex -24.4537 5.19779 40
      vertex -24.4537 -5.19779 40
      vertex -22.8386 -10.1684 40
    endloop
  endfacet
  facet normal 0 -0 1
    outer loop
      vertex -24.4537 -5.19779 40
      vertex -24.4537 5.19779 40
      vertex -25 0 40
    endloop
  endfacet
  facet normal 0.951054 -0.309026 0
    outer loop
      vertex 22.8386 -10.1684 40
      vertex 24.4537 -5.19779 10
      vertex 24.4537 -5.19779 40
    endloop
  endfacet
  facet normal 0.951054 -0.309026 0
    outer loop
      vertex 24.4537 -5.19779 10
      vertex 22.8386 -10.1684 40
      vertex 22.8386 -10.1684 10
    endloop
  endfacet
  facet normal 0 1 -0
    outer loop
      vertex 2.61321 24.863 10
      vertex -2.61321 24.863 40
      vertex 2.61321 24.863 40
    endloop
  endfacet
  facet normal 0 1 0
    outer loop
      vertex -2.61321 24.863 40
      vertex 2.61321 24.863 10
      vertex -2.61321 24.863 10
    endloop
  endfacet
  facet normal -0.58778 -0.809021 0
    outer loop
      vertex -16.7283 -18.5786 10
      vertex -12.5 -21.6506 40
      vertex -16.7283 -18.5786 40
    endloop
  endfacet
  facet normal -0.58778 -0.809021 -0
    outer loop
      vertex -12.5 -21.6506 40
      vertex -16.7283 -18.5786 10
      vertex -12.5 -21.6506 10
    endloop
  endfacet
  facet normal 0 0 1
    outer loop
      vertex 25 0 10
      vertex 30 0 10
      vertex 29.3444 6.23735 10
    endloop
  endfacet
  facet normal 0 0 1
    outer loop
      vertex 24.4537 5.19779 10
      vertex 29.3444 6.23735 10
      vertex 27.4064 12.2021 10
    endloop
  endfacet
  facet normal 0 0 1
    outer loop
      vertex 30 0 10
      vertex 25 0 10
      vertex 29.3444 -6.23735 10
    endloop
  endfacet
  facet normal -0 0 1
    outer loop
      vertex 24.4537 -5.19779 10
      vertex 29.3444 -6.23735 10
      vertex 25 0 10
    endloop
  endfacet
  facet normal 0 0 1
    outer loop
      vertex 29.3444 6.23735 10
      vertex 24.4537 5.19779 10
      vertex 25 0 10
    endloop
  endfacet
  facet normal 0 0 1
    outer loop
      vertex 22.8386 10.1684 10
      vertex 27.4064 12.2021 10
      vertex 24.2705 17.6336 10
    endloop
  endfacet
  facet normal 0 0 1
    outer loop
      vertex 27.4064 12.2021 10
      vertex 22.8386 10.1684 10
      vertex 24.4537 5.19779 10
    endloop
  endfacet
  facet normal 0 0 1
    outer loop
      vertex 24.2705 17.6336 10
      vertex 20.2254 14.6946 10
      vertex 22.8386 10.1684 10
    endloop
  endfacet
  facet normal 0 0 1
    outer loop
      vertex 20.0739 22.2943 10
      vertex 20.2254 14.6946 10
      vertex 24.2705 17.6336 10
    endloop
  endfacet
  facet normal 0 0 1
    outer loop
      vertex 20.0739 22.2943 10
      vertex 16.7283 18.5786 10
      vertex 20.2254 14.6946 10
    endloop
  endfacet
  facet normal 0 0 1
    outer loop
      vertex 15 25.9808 10
      vertex 16.7283 18.5786 10
      vertex 20.0739 22.2943 10
    endloop
  endfacet
  facet normal 0 0 1
    outer loop
      vertex 15 25.9808 10
      vertex 12.5 21.6506 10
      vertex 16.7283 18.5786 10
    endloop
  endfacet
  facet normal 0 0 1
    outer loop
      vertex 9.27051 28.5317 10
      vertex 12.5 21.6506 10
      vertex 15 25.9808 10
    endloop
  endfacet
  facet normal 0 0 1
    outer loop
      vertex 9.27051 28.5317 10
      vertex 7.72542 23.7764 10
      vertex 12.5 21.6506 10
    endloop
  endfacet
  facet normal 0 0 1
    outer loop
      vertex 3.13585 29.8357 10
      vertex 7.72542 23.7764 10
      vertex 9.27051 28.5317 10
    endloop
  endfacet
  facet normal 0 0 1
    outer loop
      vertex 3.13585 29.8357 10
      vertex 2.61321 24.863 10
      vertex 7.72542 23.7764 10
    endloop
  endfacet
  facet normal 0 0 1
    outer loop
      vertex 3.13585 29.8357 10
      vertex -2.61321 24.863 10
      vertex 2.61321 24.863 10
    endloop
  endfacet
  facet normal -0 0 1
    outer loop
      vertex -3.13585 29.8357 10
      vertex -2.61321 24.863 10
      vertex 3.13585 29.8357 10
    endloop
  endfacet
  facet normal 0 0 1
    outer loop
      vertex -3.13585 29.8357 10
      vertex -7.72542 23.7764 10
      vertex -2.61321 24.863 10
    endloop
  endfacet
  facet normal -0 0 1
    outer loop
      vertex -9.27051 28.5317 10
      vertex -7.72542 23.7764 10
      vertex -3.13585 29.8357 10
    endloop
  endfacet
  facet normal 0 0 1
    outer loop
      vertex -9.27051 28.5317 10
      vertex -12.5 21.6506 10
      vertex -7.72542 23.7764 10
    endloop
  endfacet
  facet normal -0 0 1
    outer loop
      vertex -15 25.9808 10
      vertex -12.5 21.6506 10
      vertex -9.27051 28.5317 10
    endloop
  endfacet
  facet normal 0 0 1
    outer loop
      vertex -15 25.9808 10
      vertex -16.7283 18.5786 10
      vertex -12.5 21.6506 10
    endloop
  endfacet
  facet normal -0 0 1
    outer loop
      vertex -20.0739 22.2943 10
      vertex -16.7283 18.5786 10
      vertex -15 25.9808 10
    endloop
  endfacet
  facet normal 0 0 1
    outer loop
      vertex -20.0739 22.2943 10
      vertex -20.2254 14.6946 10
      vertex -16.7283 18.5786 10
    endloop
  endfacet
  facet normal -0 0 1
    outer loop
      vertex -24.2705 17.6336 10
      vertex -20.2254 14.6946 10
      vertex -20.0739 22.2943 10
    endloop
  endfacet
  facet normal 0 0 1
    outer loop
      vertex -20.2254 14.6946 10
      vertex -24.2705 17.6336 10
      vertex -22.8386 10.1684 10
    endloop
  endfacet
  facet normal -0 0 1
    outer loop
      vertex -27.4064 12.2021 10
      vertex -22.8386 10.1684 10
      vertex -24.2705 17.6336 10
    endloop
  endfacet
  facet normal 0 0 1
    outer loop
      vertex -22.8386 10.1684 10
      vertex -27.4064 12.2021 10
      vertex -24.4537 5.19779 10
    endloop
  endfacet
  facet normal -0 0 1
    outer loop
      vertex -29.3444 6.23735 10
      vertex -24.4537 5.19779 10
      vertex -27.4064 12.2021 10
    endloop
  endfacet
  facet normal 0 0 1
    outer loop
      vertex 29.3444 -6.23735 10
      vertex 24.4537 -5.19779 10
      vertex 27.4064 -12.2021 10
    endloop
  endfacet
  facet normal -0 0 1
    outer loop
      vertex 22.8386 -10.1684 10
      vertex 27.4064 -12.2021 10
      vertex 24.4537 -5.19779 10
    endloop
  endfacet
  facet normal 0 0 1
    outer loop
      vertex 27.4064 -12.2021 10
      vertex 22.8386 -10.1684 10
      vertex 24.2705 -17.6336 10
    endloop
  endfacet
  facet normal -0 0 1
    outer loop
      vertex 20.2254 -14.6946 10
      vertex 24.2705 -17.6336 10
      vertex 22.8386 -10.1684 10
    endloop
  endfacet
  facet normal 0 0 1
    outer loop
      vertex 20.2254 -14.6946 10
      vertex 20.0739 -22.2943 10
      vertex 24.2705 -17.6336 10
    endloop
  endfacet
  facet normal -0 0 1
    outer loop
      vertex 16.7283 -18.5786 10
      vertex 20.0739 -22.2943 10
      vertex 20.2254 -14.6946 10
    endloop
  endfacet
  facet normal 0 0 1
    outer loop
      vertex 16.7283 -18.5786 10
      vertex 15 -25.9808 10
      vertex 20.0739 -22.2943 10
    endloop
  endfacet
  facet normal -0 0 1
    outer loop
      vertex 12.5 -21.6506 10
      vertex 15 -25.9808 10
      vertex 16.7283 -18.5786 10
    endloop
  endfacet
  facet normal 0 0 1
    outer loop
      vertex 12.5 -21.6506 10
      vertex 9.27051 -28.5317 10
      vertex 15 -25.9808 10
    endloop
  endfacet
  facet normal -0 0 1
    outer loop
      vertex 7.72542 -23.7764 10
      vertex 9.27051 -28.5317 10
      vertex 12.5 -21.6506 10
    endloop
  endfacet
  facet normal 0 0 1
    outer loop
      vertex 7.72542 -23.7764 10
      vertex 3.13585 -29.8357 10
      vertex 9.27051 -28.5317 10
    endloop
  endfacet
  facet normal -0 0 1
    outer loop
      vertex 2.61321 -24.863 10
      vertex 3.13585 -29.8357 10
      vertex 7.72542 -23.7764 10
    endloop
  endfacet
  facet normal -0 0 1
    outer loop
      vertex -2.61321 -24.863 10
      vertex 3.13585 -29.8357 10
      vertex 2.61321 -24.863 10
    endloop
  endfacet
  facet normal 0 0 1
    outer loop
      vertex -2.61321 -24.863 10
      vertex -3.13585 -29.8357 10
      vertex 3.13585 -29.8357 10
    endloop
  endfacet
  facet normal 0 0 1
    outer loop
      vertex -7.72542 -23.7764 10
      vertex -3.13585 -29.8357 10
      vertex -2.61321 -24.863 10
    endloop
  endfacet
  facet normal 0 0 1
    outer loop
      vertex -7.72542 -23.7764 10
      vertex -9.27051 -28.5317 10
      vertex -3.13585 -29.8357 10
    endloop
  endfacet
  facet normal 0 0 1
    outer loop
      vertex -12.5 -21.6506 10
      vertex -9.27051 -28.5317 10
      vertex -7.72542 -23.7764 10
    endloop
  endfacet
  facet normal 0 0 1
    outer loop
      vertex -12.5 -21.6506 10
      vertex -15 -25.9808 10
      vertex -9.27051 -28.5317 10
    endloop
  endfacet
  facet normal 0 0 1
    outer loop
      vertex -16.7283 -18.5786 10
      vertex -15 -25.9808 10
      vertex -12.5 -21.6506 10
    endloop
  endfacet
  facet normal 0 0 1
    outer loop
      vertex -16.7283 -18.5786 10
      vertex -20.0739 -22.2943 10
      vertex -15 -25.9808 10
    endloop
  endfacet
  facet normal 0 0 1
    outer loop
      vertex -20.2254 -14.6946 10
      vertex -20.0739 -22.2943 10
      vertex -16.7283 -18.5786 10
    endloop
  endfacet
  facet normal 0 0 1
    outer loop
      vertex -24.2705 -17.6336 10
      vertex -20.2254 -14.6946 10
      vertex -22.8386 -10.1684 10
    endloop
  endfacet
  facet normal 0 0 1
    outer loop
      vertex -20.2254 -14.6946 10
      vertex -24.2705 -17.6336 10
      vertex -20.0739 -22.2943 10
    endloop
  endfacet
  facet normal 0 0 1
    outer loop
      vertex -27.4064 -12.2021 10
      vertex -22.8386 -10.1684 10
      vertex -24.4537 -5.19779 10
    endloop
  endfacet
  facet normal 0 0 1
    outer loop
      vertex -29.3444 -6.23735 10
      vertex -24.4537 -5.19779 10
      vertex -25 0 10
    endloop
  endfacet
  facet normal 0 0 1
    outer loop
      vertex -24.4537 5.19779 10
      vertex -29.3444 6.23735 10
      vertex -25 0 10
    endloop
  endfacet
  facet normal 0 0 1
    outer loop
      vertex -22.8386 -10.1684 10
      vertex -27.4064 -12.2021 10
      vertex -24.2705 -17.6336 10
    endloop
  endfacet
  facet normal 0 0 1
    outer loop
      vertex -30 0 10
      vertex -25 0 10
      vertex -29.3444 6.23735 10
    endloop
  endfacet
  facet normal 0 0 1
    outer loop
      vertex -24.4537 -5.19779 10
      vertex -29.3444 -6.23735 10
      vertex -27.4064 -12.2021 10
    endloop
  endfacet
  facet normal 0 0 1
    outer loop
      vertex -25 0 10
      vertex -30 0 10
      vertex -29.3444 -6.23735 10
    endloop
  endfacet
  facet normal -0.40674 0.913544 0
    outer loop
      vertex -7.72542 23.7764 10
      vertex -12.5 21.6506 40
      vertex -7.72542 23.7764 40
    endloop
  endfacet
  facet normal -0.40674 0.913544 0
    outer loop
      vertex -12.5 21.6506 40
      vertex -7.72542 23.7764 10
      vertex -12.5 21.6506 10
    endloop
  endfacet
  facet normal -0.994522 -0.104527 0
    outer loop
      vertex -24.4537 -5.19779 10
      vertex -25 0 40
      vertex -25 0 10
    endloop
  endfacet
  facet normal -0.994522 -0.104527 0
    outer loop
      vertex -25 0 40
      vertex -24.4537 -5.19779 10
      vertex -24.4537 -5.19779 40
    endloop
  endfacet
  facet normal -0.743151 -0.669123 0
    outer loop
      vertex -16.7283 -18.5786 10
      vertex -20.2254 -14.6946 40
      vertex -20.2254 -14.6946 10
    endloop
  endfacet
  facet normal -0.743151 -0.669123 0
    outer loop
      vertex -20.2254 -14.6946 40
      vertex -16.7283 -18.5786 10
      vertex -16.7283 -18.5786 40
    endloop
  endfacet
  facet normal -0.866026 -0.5 0
    outer loop
      vertex -20.2254 -14.6946 10
      vertex -22.8386 -10.1684 40
      vertex -22.8386 -10.1684 10
    endloop
  endfacet
  facet normal -0.866026 -0.5 0
    outer loop
      vertex -22.8386 -10.1684 40
      vertex -20.2254 -14.6946 10
      vertex -20.2254 -14.6946 40
    endloop
  endfacet
  facet normal 0.207906 -0.978149 0
    outer loop
      vertex 2.61321 -24.863 10
      vertex 7.72542 -23.7764 40
      vertex 2.61321 -24.863 40
    endloop
  endfacet
  facet normal 0.207906 -0.978149 0
    outer loop
      vertex 7.72542 -23.7764 40
      vertex 2.61321 -24.863 10
      vertex 7.72542 -23.7764 10
    endloop
  endfacet
  facet normal -0.994522 0.104527 0
    outer loop
      vertex -25 0 10
      vertex -24.4537 5.19779 40
      vertex -24.4537 5.19779 10
    endloop
  endfacet
  facet normal -0.994522 0.104527 0
    outer loop
      vertex -24.4537 5.19779 40
      vertex -25 0 10
      vertex -25 0 40
    endloop
  endfacet
  facet normal 0.207906 0.978149 -0
    outer loop
      vertex 7.72542 23.7764 10
      vertex 2.61321 24.863 40
      vertex 7.72542 23.7764 40
    endloop
  endfacet
  facet normal 0.207906 0.978149 0
    outer loop
      vertex 2.61321 24.863 40
      vertex 7.72542 23.7764 10
      vertex 2.61321 24.863 10
    endloop
  endfacet
  facet normal 0.58778 0.809021 -0
    outer loop
      vertex 16.7283 18.5786 10
      vertex 12.5 21.6506 40
      vertex 16.7283 18.5786 40
    endloop
  endfacet
  facet normal 0.58778 0.809021 0
    outer loop
      vertex 12.5 21.6506 40
      vertex 16.7283 18.5786 10
      vertex 12.5 21.6506 10
    endloop
  endfacet
  facet normal -0.207906 0.978149 0
    outer loop
      vertex -2.61321 24.863 10
      vertex -7.72542 23.7764 40
      vertex -2.61321 24.863 40
    endloop
  endfacet
  facet normal -0.207906 0.978149 0
    outer loop
      vertex -7.72542 23.7764 40
      vertex -2.61321 24.863 10
      vertex -7.72542 23.7764 10
    endloop
  endfacet
  facet normal 0.40674 -0.913544 0
    outer loop
      vertex 7.72542 -23.7764 10
      vertex 12.5 -21.6506 40
      vertex 7.72542 -23.7764 40
    endloop
  endfacet
  facet normal 0.40674 -0.913544 0
    outer loop
      vertex 12.5 -21.6506 40
      vertex 7.72542 -23.7764 10
      vertex 12.5 -21.6506 10
    endloop
  endfacet
  facet normal 0 -1 0
    outer loop
      vertex -2.61321 -24.863 10
      vertex 2.61321 -24.863 40
      vertex -2.61321 -24.863 40
    endloop
  endfacet
  facet normal 0 -1 -0
    outer loop
      vertex 2.61321 -24.863 40
      vertex -2.61321 -24.863 10
      vertex 2.61321 -24.863 10
    endloop
  endfacet
  facet normal -0.207906 -0.978149 0
    outer loop
      vertex -7.72542 -23.7764 10
      vertex -2.61321 -24.863 40
      vertex -7.72542 -23.7764 40
    endloop
  endfacet
  facet normal -0.207906 -0.978149 -0
    outer loop
      vertex -2.61321 -24.863 40
      vertex -7.72542 -23.7764 10
      vertex -2.61321 -24.863 10
    endloop
  endfacet
  facet normal -0.951054 0.309026 0
    outer loop
      vertex -24.4537 5.19779 10
      vertex -22.8386 10.1684 40
      vertex -22.8386 10.1684 10
    endloop
  endfacet
  facet normal -0.951054 0.309026 0
    outer loop
      vertex -22.8386 10.1684 40
      vertex -24.4537 5.19779 10
      vertex -24.4537 5.19779 40
    endloop
  endfacet
  facet normal -0.40674 -0.913544 0
    outer loop
      vertex -12.5 -21.6506 -40
      vertex -7.72542 -23.7764 -10
      vertex -12.5 -21.6506 -10
    endloop
  endfacet
  facet normal -0.40674 -0.913544 -0
    outer loop
      vertex -7.72542 -23.7764 -10
      vertex -12.5 -21.6506 -40
      vertex -7.72542 -23.7764 -40
    endloop
  endfacet
  facet normal -0.951054 -0.309026 0
    outer loop
      vertex -22.8386 -10.1684 -40
      vertex -24.4537 -5.19779 -10
      vertex -24.4537 -5.19779 -40
    endloop
  endfacet
  facet normal -0.951054 -0.309026 0
    outer loop
      vertex -24.4537 -5.19779 -10
      vertex -22.8386 -10.1684 -40
      vertex -22.8386 -10.1684 -10
    endloop
  endfacet
  facet normal 0.951054 0.309026 0
    outer loop
      vertex 24.4537 5.19779 -10
      vertex 22.8386 10.1684 -40
      vertex 22.8386 10.1684 -10
    endloop
  endfacet
  facet normal 0.951054 0.309026 0
    outer loop
      vertex 22.8386 10.1684 -40
      vertex 24.4537 5.19779 -10
      vertex 24.4537 5.19779 -40
    endloop
  endfacet
  facet normal 0.994522 0.104527 0
    outer loop
      vertex 25 0 -10
      vertex 24.4537 5.19779 -40
      vertex 24.4537 5.19779 -10
    endloop
  endfacet
  facet normal 0.994522 0.104527 0
    outer loop
      vertex 24.4537 5.19779 -40
      vertex 25 0 -10
      vertex 25 0 -40
    endloop
  endfacet
  facet normal 0.866026 0.5 0
    outer loop
      vertex 22.8386 10.1684 -10
      vertex 20.2254 14.6946 -40
      vertex 20.2254 14.6946 -10
    endloop
  endfacet
  facet normal 0.866026 0.5 0
    outer loop
      vertex 20.2254 14.6946 -40
      vertex 22.8386 10.1684 -10
      vertex 22.8386 10.1684 -40
    endloop
  endfacet
  facet normal 0.58778 -0.809021 0
    outer loop
      vertex 12.5 -21.6506 -40
      vertex 16.7283 -18.5786 -10
      vertex 12.5 -21.6506 -10
    endloop
  endfacet
  facet normal 0.58778 -0.809021 0
    outer loop
      vertex 16.7283 -18.5786 -10
      vertex 12.5 -21.6506 -40
      vertex 16.7283 -18.5786 -40
    endloop
  endfacet
  facet normal 0.40674 0.913544 -0
    outer loop
      vertex 12.5 21.6506 -40
      vertex 7.72542 23.7764 -10
      vertex 12.5 21.6506 -10
    endloop
  endfacet
  facet normal 0.40674 0.913544 0
    outer loop
      vertex 7.72542 23.7764 -10
      vertex 12.5 21.6506 -40
      vertex 7.72542 23.7764 -40
    endloop
  endfacet
  facet normal 0.994522 -0.104527 0
    outer loop
      vertex 24.4537 -5.19779 -10
      vertex 25 0 -40
      vertex 25 0 -10
    endloop
  endfacet
  facet normal 0.994522 -0.104527 0
    outer loop
      vertex 25 0 -40
      vertex 24.4537 -5.19779 -10
      vertex 24.4537 -5.19779 -40
    endloop
  endfacet
  facet normal 0.743151 0.669123 0
    outer loop
      vertex 20.2254 14.6946 -10
      vertex 16.7283 18.5786 -40
      vertex 16.7283 18.5786 -10
    endloop
  endfacet
  facet normal 0.743151 0.669123 0
    outer loop
      vertex 16.7283 18.5786 -40
      vertex 20.2254 14.6946 -10
      vertex 20.2254 14.6946 -40
    endloop
  endfacet
  facet normal -0.866026 0.5 0
    outer loop
      vertex -22.8386 10.1684 -40
      vertex -20.2254 14.6946 -10
      vertex -20.2254 14.6946 -40
    endloop
  endfacet
  facet normal -0.866026 0.5 0
    outer loop
      vertex -20.2254 14.6946 -10
      vertex -22.8386 10.1684 -40
      vertex -22.8386 10.1684 -10
    endloop
  endfacet
  facet normal 0.743151 -0.669123 0
    outer loop
      vertex 16.7283 -18.5786 -10
      vertex 20.2254 -14.6946 -40
      vertex 20.2254 -14.6946 -10
    endloop
  endfacet
  facet normal 0.743151 -0.669123 0
    outer loop
      vertex 20.2254 -14.6946 -40
      vertex 16.7283 -18.5786 -10
      vertex 16.7283 -18.5786 -40
    endloop
  endfacet
  facet normal -0.743151 0.669123 0
    outer loop
      vertex -20.2254 14.6946 -40
      vertex -16.7283 18.5786 -10
      vertex -16.7283 18.5786 -40
    endloop
  endfacet
  facet normal -0.743151 0.669123 0
    outer loop
      vertex -16.7283 18.5786 -10
      vertex -20.2254 14.6946 -40
      vertex -20.2254 14.6946 -10
    endloop
  endfacet
  facet normal 0.866026 -0.5 0
    outer loop
      vertex 20.2254 -14.6946 -10
      vertex 22.8386 -10.1684 -40
      vertex 22.8386 -10.1684 -10
    endloop
  endfacet
  facet normal 0.866026 -0.5 0
    outer loop
      vertex 22.8386 -10.1684 -40
      vertex 20.2254 -14.6946 -10
      vertex 20.2254 -14.6946 -40
    endloop
  endfacet
  facet normal -0.58778 0.809021 0
    outer loop
      vertex -12.5 21.6506 -40
      vertex -16.7283 18.5786 -10
      vertex -12.5 21.6506 -10
    endloop
  endfacet
  facet normal -0.58778 0.809021 0
    outer loop
      vertex -16.7283 18.5786 -10
      vertex -12.5 21.6506 -40
      vertex -16.7283 18.5786 -40
    endloop
  endfacet
  facet normal 0 0 -1
    outer loop
      vertex 25 0 -10
      vertex 30 0 -10
      vertex 29.3444 -6.23735 -10
    endloop
  endfacet
  facet normal 0 0 -1
    outer loop
      vertex 24.4537 -5.19779 -10
      vertex 29.3444 -6.23735 -10
      vertex 27.4064 -12.2021 -10
    endloop
  endfacet
  facet normal 0 0 -1
    outer loop
      vertex 30 0 -10
      vertex 25 0 -10
      vertex 29.3444 6.23735 -10
    endloop
  endfacet
  facet normal 0 0 -1
    outer loop
      vertex 24.4537 5.19779 -10
      vertex 29.3444 6.23735 -10
      vertex 25 0 -10
    endloop
  endfacet
  facet normal 0 0 -1
    outer loop
      vertex 29.3444 -6.23735 -10
      vertex 24.4537 -5.19779 -10
      vertex 25 0 -10
    endloop
  endfacet
  facet normal 0 0 -1
    outer loop
      vertex 22.8386 -10.1684 -10
      vertex 27.4064 -12.2021 -10
      vertex 24.2705 -17.6336 -10
    endloop
  endfacet
  facet normal 0 0 -1
    outer loop
      vertex 27.4064 -12.2021 -10
      vertex 22.8386 -10.1684 -10
      vertex 24.4537 -5.19779 -10
    endloop
  endfacet
  facet normal 0 0 -1
    outer loop
      vertex 24.2705 -17.6336 -10
      vertex 20.2254 -14.6946 -10
      vertex 22.8386 -10.1684 -10
    endloop
  endfacet
  facet normal 0 0 -1
    outer loop
      vertex 20.0739 -22.2943 -10
      vertex 20.2254 -14.6946 -10
      vertex 24.2705 -17.6336 -10
    endloop
  endfacet
  facet normal 0 0 -1
    outer loop
      vertex 20.0739 -22.2943 -10
      vertex 16.7283 -18.5786 -10
      vertex 20.2254 -14.6946 -10
    endloop
  endfacet
  facet normal 0 0 -1
    outer loop
      vertex 15 -25.9808 -10
      vertex 16.7283 -18.5786 -10
      vertex 20.0739 -22.2943 -10
    endloop
  endfacet
  facet normal 0 0 -1
    outer loop
      vertex 15 -25.9808 -10
      vertex 12.5 -21.6506 -10
      vertex 16.7283 -18.5786 -10
    endloop
  endfacet
  facet normal 0 0 -1
    outer loop
      vertex 9.27051 -28.5317 -10
      vertex 12.5 -21.6506 -10
      vertex 15 -25.9808 -10
    endloop
  endfacet
  facet normal 0 0 -1
    outer loop
      vertex 9.27051 -28.5317 -10
      vertex 7.72542 -23.7764 -10
      vertex 12.5 -21.6506 -10
    endloop
  endfacet
  facet normal 0 0 -1
    outer loop
      vertex 3.13585 -29.8357 -10
      vertex 7.72542 -23.7764 -10
      vertex 9.27051 -28.5317 -10
    endloop
  endfacet
  facet normal 0 0 -1
    outer loop
      vertex 3.13585 -29.8357 -10
      vertex 2.61321 -24.863 -10
      vertex 7.72542 -23.7764 -10
    endloop
  endfacet
  facet normal 0 0 -1
    outer loop
      vertex 3.13585 -29.8357 -10
      vertex -2.61321 -24.863 -10
      vertex 2.61321 -24.863 -10
    endloop
  endfacet
  facet normal 0 0 -1
    outer loop
      vertex -3.13585 -29.8357 -10
      vertex -2.61321 -24.863 -10
      vertex 3.13585 -29.8357 -10
    endloop
  endfacet
  facet normal 0 0 -1
    outer loop
      vertex -3.13585 -29.8357 -10
      vertex -7.72542 -23.7764 -10
      vertex -2.61321 -24.863 -10
    endloop
  endfacet
  facet normal 0 0 -1
    outer loop
      vertex -9.27051 -28.5317 -10
      vertex -7.72542 -23.7764 -10
      vertex -3.13585 -29.8357 -10
    endloop
  endfacet
  facet normal 0 0 -1
    outer loop
      vertex -9.27051 -28.5317 -10
      vertex -12.5 -21.6506 -10
      vertex -7.72542 -23.7764 -10
    endloop
  endfacet
  facet normal 0 0 -1
    outer loop
      vertex -15 -25.9808 -10
      vertex -12.5 -21.6506 -10
      vertex -9.27051 -28.5317 -10
    endloop
  endfacet
  facet normal 0 0 -1
    outer loop
      vertex -15 -25.9808 -10
      vertex -16.7283 -18.5786 -10
      vertex -12.5 -21.6506 -10
    endloop
  endfacet
  facet normal 0 0 -1
    outer loop
      vertex -20.0739 -22.2943 -10
      vertex -16.7283 -18.5786 -10
      vertex -15 -25.9808 -10
    endloop
  endfacet
  facet normal 0 0 -1
    outer loop
      vertex -20.0739 -22.2943 -10
      vertex -20.2254 -14.6946 -10
      vertex -16.7283 -18.5786 -10
    endloop
  endfacet
  facet normal 0 0 -1
    outer loop
      vertex -24.2705 -17.6336 -10
      vertex -20.2254 -14.6946 -10
      vertex -20.0739 -22.2943 -10
    endloop
  endfacet
  facet normal -0 0 -1
    outer loop
      vertex -20.2254 -14.6946 -10
      vertex -24.2705 -17.6336 -10
      vertex -22.8386 -10.1684 -10
    endloop
  endfacet
  facet normal 0 0 -1
    outer loop
      vertex -27.4064 -12.2021 -10
      vertex -22.8386 -10.1684 -10
      vertex -24.2705 -17.6336 -10
    endloop
  endfacet
  facet normal -0 0 -1
    outer loop
      vertex -22.8386 -10.1684 -10
      vertex -27.4064 -12.2021 -10
      vertex -24.4537 -5.19779 -10
    endloop
  endfacet
  facet normal 0 0 -1
    outer loop
      vertex -29.3444 -6.23735 -10
      vertex -24.4537 -5.19779 -10
      vertex -27.4064 -12.2021 -10
    endloop
  endfacet
  facet normal -0 0 -1
    outer loop
      vertex 29.3444 6.23735 -10
      vertex 24.4537 5.19779 -10
      vertex 27.4064 12.2021 -10
    endloop
  endfacet
  facet normal 0 0 -1
    outer loop
      vertex 22.8386 10.1684 -10
      vertex 27.4064 12.2021 -10
      vertex 24.4537 5.19779 -10
    endloop
  endfacet
  facet normal -0 0 -1
    outer loop
      vertex 27.4064 12.2021 -10
      vertex 22.8386 10.1684 -10
      vertex 24.2705 17.6336 -10
    endloop
  endfacet
  facet normal 0 0 -1
    outer loop
      vertex 20.2254 14.6946 -10
      vertex 24.2705 17.6336 -10
      vertex 22.8386 10.1684 -10
    endloop
  endfacet
  facet normal 0 0 -1
    outer loop
      vertex 20.2254 14.6946 -10
      vertex 20.0739 22.2943 -10
      vertex 24.2705 17.6336 -10
    endloop
  endfacet
  facet normal 0 0 -1
    outer loop
      vertex 16.7283 18.5786 -10
      vertex 20.0739 22.2943 -10
      vertex 20.2254 14.6946 -10
    endloop
  endfacet
  facet normal 0 0 -1
    outer loop
      vertex 16.7283 18.5786 -10
      vertex 15 25.9808 -10
      vertex 20.0739 22.2943 -10
    endloop
  endfacet
  facet normal 0 0 -1
    outer loop
      vertex 12.5 21.6506 -10
      vertex 15 25.9808 -10
      vertex 16.7283 18.5786 -10
    endloop
  endfacet
  facet normal 0 0 -1
    outer loop
      vertex 12.5 21.6506 -10
      vertex 9.27051 28.5317 -10
      vertex 15 25.9808 -10
    endloop
  endfacet
  facet normal 0 0 -1
    outer loop
      vertex 7.72542 23.7764 -10
      vertex 9.27051 28.5317 -10
      vertex 12.5 21.6506 -10
    endloop
  endfacet
  facet normal 0 0 -1
    outer loop
      vertex 7.72542 23.7764 -10
      vertex 3.13585 29.8357 -10
      vertex 9.27051 28.5317 -10
    endloop
  endfacet
  facet normal 0 0 -1
    outer loop
      vertex 2.61321 24.863 -10
      vertex 3.13585 29.8357 -10
      vertex 7.72542 23.7764 -10
    endloop
  endfacet
  facet normal 0 0 -1
    outer loop
      vertex -2.61321 24.863 -10
      vertex 3.13585 29.8357 -10
      vertex 2.61321 24.863 -10
    endloop
  endfacet
  facet normal 0 0 -1
    outer loop
      vertex -2.61321 24.863 -10
      vertex -3.13585 29.8357 -10
      vertex 3.13585 29.8357 -10
    endloop
  endfacet
  facet normal 0 0 -1
    outer loop
      vertex -7.72542 23.7764 -10
      vertex -3.13585 29.8357 -10
      vertex -2.61321 24.863 -10
    endloop
  endfacet
  facet normal 0 0 -1
    outer loop
      vertex -7.72542 23.7764 -10
      vertex -9.27051 28.5317 -10
      vertex -3.13585 29.8357 -10
    endloop
  endfacet
  facet normal 0 0 -1
    outer loop
      vertex -12.5 21.6506 -10
      vertex -9.27051 28.5317 -10
      vertex -7.72542 23.7764 -10
    endloop
  endfacet
  facet normal 0 0 -1
    outer loop
      vertex -12.5 21.6506 -10
      vertex -15 25.9808 -10
      vertex -9.27051 28.5317 -10
    endloop
  endfacet
  facet normal 0 0 -1
    outer loop
      vertex -16.7283 18.5786 -10
      vertex -15 25.9808 -10
      vertex -12.5 21.6506 -10
    endloop
  endfacet
  facet normal 0 0 -1
    outer loop
      vertex -16.7283 18.5786 -10
      vertex -20.0739 22.2943 -10
      vertex -15 25.9808 -10
    endloop
  endfacet
  facet normal 0 0 -1
    outer loop
      vertex -20.2254 14.6946 -10
      vertex -20.0739 22.2943 -10
      vertex -16.7283 18.5786 -10
    endloop
  endfacet
  facet normal 0 0 -1
    outer loop
      vertex -24.2705 17.6336 -10
      vertex -20.2254 14.6946 -10
      vertex -22.8386 10.1684 -10
    endloop
  endfacet
  facet normal 0 0 -1
    outer loop
      vertex -20.2254 14.6946 -10
      vertex -24.2705 17.6336 -10
      vertex -20.0739 22.2943 -10
    endloop
  endfacet
  facet normal 0 0 -1
    outer loop
      vertex -27.4064 12.2021 -10
      vertex -22.8386 10.1684 -10
      vertex -24.4537 5.19779 -10
    endloop
  endfacet
  facet normal 0 0 -1
    outer loop
      vertex -29.3444 6.23735 -10
      vertex -24.4537 5.19779 -10
      vertex -25 0 -10
    endloop
  endfacet
  facet normal -0 0 -1
    outer loop
      vertex -24.4537 -5.19779 -10
      vertex -29.3444 -6.23735 -10
      vertex -25 0 -10
    endloop
  endfacet
  facet normal 0 0 -1
    outer loop
      vertex -22.8386 10.1684 -10
      vertex -27.4064 12.2021 -10
      vertex -24.2705 17.6336 -10
    endloop
  endfacet
  facet normal 0 0 -1
    outer loop
      vertex -30 0 -10
      vertex -25 0 -10
      vertex -29.3444 -6.23735 -10
    endloop
  endfacet
  facet normal 0 0 -1
    outer loop
      vertex -24.4537 5.19779 -10
      vertex -29.3444 6.23735 -10
      vertex -27.4064 12.2021 -10
    endloop
  endfacet
  facet normal 0 0 -1
    outer loop
      vertex -25 0 -10
      vertex -30 0 -10
      vertex -29.3444 6.23735 -10
    endloop
  endfacet
  facet normal 0.951054 -0.309026 0
    outer loop
      vertex 22.8386 -10.1684 -10
      vertex 24.4537 -5.19779 -40
      vertex 24.4537 -5.19779 -10
    endloop
  endfacet
  facet normal 0.951054 -0.309026 0
    outer loop
      vertex 24.4537 -5.19779 -40
      vertex 22.8386 -10.1684 -10
      vertex 22.8386 -10.1684 -40
    endloop
  endfacet
  facet normal 0 1 -0
    outer loop
      vertex 2.61321 24.863 -40
      vertex -2.61321 24.863 -10
      vertex 2.61321 24.863 -10
    endloop
  endfacet
  facet normal 0 1 0
    outer loop
      vertex -2.61321 24.863 -10
      vertex 2.61321 24.863 -40
      vertex -2.61321 24.863 -40
    endloop
  endfacet
  facet normal -0.58778 -0.809021 0
    outer loop
      vertex -16.7283 -18.5786 -40
      vertex -12.5 -21.6506 -10
      vertex -16.7283 -18.5786 -10
    endloop
  endfacet
  facet normal -0.58778 -0.809021 -0
    outer loop
      vertex -12.5 -21.6506 -10
      vertex -16.7283 -18.5786 -40
      vertex -12.5 -21.6506 -40
    endloop
  endfacet
  facet normal 0 0 -1
    outer loop
      vertex 24.4537 -5.19779 -40
      vertex 24.4537 5.19779 -40
      vertex 25 0 -40
    endloop
  endfacet
  facet normal 0 0 -1
    outer loop
      vertex 22.8386 -10.1684 -40
      vertex 24.4537 5.19779 -40
      vertex 24.4537 -5.19779 -40
    endloop
  endfacet
  facet normal 0 0 -1
    outer loop
      vertex 22.8386 -10.1684 -40
      vertex 22.8386 10.1684 -40
      vertex 24.4537 5.19779 -40
    endloop
  endfacet
  facet normal 0 0 -1
    outer loop
      vertex 20.2254 -14.6946 -40
      vertex 22.8386 10.1684 -40
      vertex 22.8386 -10.1684 -40
    endloop
  endfacet
  facet normal 0 0 -1
    outer loop
      vertex 20.2254 -14.6946 -40
      vertex 20.2254 14.6946 -40
      vertex 22.8386 10.1684 -40
    endloop
  endfacet
  facet normal 0 0 -1
    outer loop
      vertex 16.7283 -18.5786 -40
      vertex 20.2254 14.6946 -40
      vertex 20.2254 -14.6946 -40
    endloop
  endfacet
  facet normal 0 0 -1
    outer loop
      vertex 16.7283 -18.5786 -40
      vertex 16.7283 18.5786 -40
      vertex 20.2254 14.6946 -40
    endloop
  endfacet
  facet normal 0 0 -1
    outer loop
      vertex 12.5 -21.6506 -40
      vertex 16.7283 18.5786 -40
      vertex 16.7283 -18.5786 -40
    endloop
  endfacet
  facet normal 0 0 -1
    outer loop
      vertex 12.5 -21.6506 -40
      vertex 12.5 21.6506 -40
      vertex 16.7283 18.5786 -40
    endloop
  endfacet
  facet normal 0 0 -1
    outer loop
      vertex 7.72542 -23.7764 -40
      vertex 12.5 21.6506 -40
      vertex 12.5 -21.6506 -40
    endloop
  endfacet
  facet normal 0 0 -1
    outer loop
      vertex 7.72542 -23.7764 -40
      vertex 7.72542 23.7764 -40
      vertex 12.5 21.6506 -40
    endloop
  endfacet
  facet normal 0 0 -1
    outer loop
      vertex 2.61321 -24.863 -40
      vertex 7.72542 23.7764 -40
      vertex 7.72542 -23.7764 -40
    endloop
  endfacet
  facet normal 0 0 -1
    outer loop
      vertex 2.61321 -24.863 -40
      vertex 2.61321 24.863 -40
      vertex 7.72542 23.7764 -40
    endloop
  endfacet
  facet normal 0 0 -1
    outer loop
      vertex -2.61321 -24.863 -40
      vertex 2.61321 24.863 -40
      vertex 2.61321 -24.863 -40
    endloop
  endfacet
  facet normal 0 0 -1
    outer loop
      vertex -2.61321 -24.863 -40
      vertex -2.61321 24.863 -40
      vertex 2.61321 24.863 -40
    endloop
  endfacet
  facet normal 0 0 -1
    outer loop
      vertex -7.72542 -23.7764 -40
      vertex -2.61321 24.863 -40
      vertex -2.61321 -24.863 -40
    endloop
  endfacet
  facet normal 0 0 -1
    outer loop
      vertex -7.72542 -23.7764 -40
      vertex -7.72542 23.7764 -40
      vertex -2.61321 24.863 -40
    endloop
  endfacet
  facet normal 0 0 -1
    outer loop
      vertex -12.5 -21.6506 -40
      vertex -7.72542 23.7764 -40
      vertex -7.72542 -23.7764 -40
    endloop
  endfacet
  facet normal 0 0 -1
    outer loop
      vertex -12.5 -21.6506 -40
      vertex -12.5 21.6506 -40
      vertex -7.72542 23.7764 -40
    endloop
  endfacet
  facet normal 0 0 -1
    outer loop
      vertex -16.7283 -18.5786 -40
      vertex -12.5 21.6506 -40
      vertex -12.5 -21.6506 -40
    endloop
  endfacet
  facet normal 0 0 -1
    outer loop
      vertex -16.7283 -18.5786 -40
      vertex -16.7283 18.5786 -40
      vertex -12.5 21.6506 -40
    endloop
  endfacet
  facet normal 0 0 -1
    outer loop
      vertex -20.2254 -14.6946 -40
      vertex -16.7283 18.5786 -40
      vertex -16.7283 -18.5786 -40
    endloop
  endfacet
  facet normal 0 0 -1
    outer loop
      vertex -20.2254 -14.6946 -40
      vertex -20.2254 14.6946 -40
      vertex -16.7283 18.5786 -40
    endloop
  endfacet
  facet normal 0 0 -1
    outer loop
      vertex -22.8386 -10.1684 -40
      vertex -20.2254 14.6946 -40
      vertex -20.2254 -14.6946 -40
    endloop
  endfacet
  facet normal 0 0 -1
    outer loop
      vertex -22.8386 -10.1684 -40
      vertex -22.8386 10.1684 -40
      vertex -20.2254 14.6946 -40
    endloop
  endfacet
  facet normal 0 0 -1
    outer loop
      vertex -24.4537 -5.19779 -40
      vertex -22.8386 10.1684 -40
      vertex -22.8386 -10.1684 -40
    endloop
  endfacet
  facet normal 0 0 -1
    outer loop
      vertex -24.4537 -5.19779 -40
      vertex -24.4537 5.19779 -40
      vertex -22.8386 10.1684 -40
    endloop
  endfacet
  facet normal 0 -0 -1
    outer loop
      vertex -24.4537 5.19779 -40
      vertex -24.4537 -5.19779 -40
      vertex -25 0 -40
    endloop
  endfacet
  facet normal -0.40674 0.913544 0
    outer loop
      vertex -7.72542 23.7764 -40
      vertex -12.5 21.6506 -10
      vertex -7.72542 23.7764 -10
    endloop
  endfacet
  facet normal -0.40674 0.913544 0
    outer loop
      vertex -12.5 21.6506 -10
      vertex -7.72542 23.7764 -40
      vertex -12.5 21.6506 -40
    endloop
  endfacet
  facet normal -0.994522 -0.104527 0
    outer loop
      vertex -24.4537 -5.19779 -40
      vertex -25 0 -10
      vertex -25 0 -40
    endloop
  endfacet
  facet normal -0.994522 -0.104527 0
    outer loop
      vertex -25 0 -10
      vertex -24.4537 -5.19779 -40
      vertex -24.4537 -5.19779 -10
    endloop
  endfacet
  facet normal -0.743151 -0.669123 0
    outer loop
      vertex -16.7283 -18.5786 -40
      vertex -20.2254 -14.6946 -10
      vertex -20.2254 -14.6946 -40
    endloop
  endfacet
  facet normal -0.743151 -0.669123 0
    outer loop
      vertex -20.2254 -14.6946 -10
      vertex -16.7283 -18.5786 -40
      vertex -16.7283 -18.5786 -10
    endloop
  endfacet
  facet normal -0.866026 -0.5 0
    outer loop
      vertex -20.2254 -14.6946 -40
      vertex -22.8386 -10.1684 -10
      vertex -22.8386 -10.1684 -40
    endloop
  endfacet
  facet normal -0.866026 -0.5 0
    outer loop
      vertex -22.8386 -10.1684 -10
      vertex -20.2254 -14.6946 -40
      vertex -20.2254 -14.6946 -10
    endloop
  endfacet
  facet normal 0.207906 -0.978149 0
    outer loop
      vertex 2.61321 -24.863 -40
      vertex 7.72542 -23.7764 -10
      vertex 2.61321 -24.863 -10
    endloop
  endfacet
  facet normal 0.207906 -0.978149 0
    outer loop
      vertex 7.72542 -23.7764 -10
      vertex 2.61321 -24.863 -40
      vertex 7.72542 -23.7764 -40
    endloop
  endfacet
  facet normal -0.994522 0.104527 0
    outer loop
      vertex -25 0 -40
      vertex -24.4537 5.19779 -10
      vertex -24.4537 5.19779 -40
    endloop
  endfacet
  facet normal -0.994522 0.104527 0
    outer loop
      vertex -24.4537 5.19779 -10
      vertex -25 0 -40
      vertex -25 0 -10
    endloop
  endfacet
  facet normal 0.207906 0.978149 -0
    outer loop
      vertex 7.72542 23.7764 -40
      vertex 2.61321 24.863 -10
      vertex 7.72542 23.7764 -10
    endloop
  endfacet
  facet normal 0.207906 0.978149 0
    outer loop
      vertex 2.61321 24.863 -10
      vertex 7.72542 23.7764 -40
      vertex 2.61321 24.863 -40
    endloop
  endfacet
  facet normal 0.58778 0.809021 -0
    outer loop
      vertex 16.7283 18.5786 -40
      vertex 12.5 21.6506 -10
      vertex 16.7283 18.5786 -10
    endloop
  endfacet
  facet normal 0.58778 0.809021 0
    outer loop
      vertex 12.5 21.6506 -10
      vertex 16.7283 18.5786 -40
      vertex 12.5 21.6506 -40
    endloop
  endfacet
  facet normal -0.207906 0.978149 0
    outer loop
      vertex -2.61321 24.863 -40
      vertex -7.72542 23.7764 -10
      vertex -2.61321 24.863 -10
    endloop
  endfacet
  facet normal -0.207906 0.978149 0
    outer loop
      vertex -7.72542 23.7764 -10
      vertex -2.61321 24.863 -40
      vertex -7.72542 23.7764 -40
    endloop
  endfacet
  facet normal 0.40674 -0.913544 0
    outer loop
      vertex 7.72542 -23.7764 -40
      vertex 12.5 -21.6506 -10
      vertex 7.72542 -23.7764 -10
    endloop
  endfacet
  facet normal 0.40674 -0.913544 0
    outer loop
      vertex 12.5 -21.6506 -10
      vertex 7.72542 -23.7764 -40
      vertex 12.5 -21.6506 -40
    endloop
  endfacet
  facet normal 0 -1 0
    outer loop
      vertex -2.61321 -24.863 -40
      vertex 2.61321 -24.863 -10
      vertex -2.61321 -24.863 -10
    endloop
  endfacet
  facet normal 0 -1 -0
    outer loop
      vertex 2.61321 -24.863 -10
      vertex -2.61321 -24.863 -40
      vertex 2.61321 -24.863 -40
    endloop
  endfacet
  facet normal -0.207906 -0.978149 0
    outer loop
      vertex -7.72542 -23.7764 -40
      vertex -2.61321 -24.863 -10
      vertex -7.72542 -23.7764 -10
    endloop
  endfacet
  facet normal -0.207906 -0.978149 -0
    outer loop
      vertex -2.61321 -24.863 -10
      vertex -7.72542 -23.7764 -40
      vertex -2.61321 -24.863 -40
    endloop
  endfacet
  facet normal -0.951054 0.309026 0
    outer loop
      vertex -24.4537 5.19779 -40
      vertex -22.8386 10.1684 -10
      vertex -22.8386 10.1684 -40
    endloop
  endfacet
  facet normal -0.951054 0.309026 0
    outer loop
      vertex -22.8386 10.1684 -10
      vertex -24.4537 5.19779 -40
      vertex -24.4537 5.19779 -10
    endloop
  endfacet
  facet normal -0.743138 -0.669138 0
    outer loop
      vertex -20.0739 -22.2943 -10
      vertex -24.2705 -17.6336 10
      vertex -24.2705 -17.6336 -10
    endloop
  endfacet
  facet normal -0.743138 -0.669138 0
    outer loop
      vertex -24.2705 -17.6336 10
      vertex -20.0739 -22.2943 -10
      vertex -20.0739 -22.2943 10
    endloop
  endfacet
  facet normal 0.95106 0.309008 0
    outer loop
      vertex 29.3444 6.23735 10
      vertex 27.4064 12.2021 -10
      vertex 27.4064 12.2021 10
    endloop
  endfacet
  facet normal 0.95106 0.309008 0
    outer loop
      vertex 27.4064 12.2021 -10
      vertex 29.3444 6.23735 10
      vertex 29.3444 6.23735 -10
    endloop
  endfacet
  facet normal 0.994521 0.104533 0
    outer loop
      vertex 30 0 10
      vertex 29.3444 6.23735 -10
      vertex 29.3444 6.23735 10
    endloop
  endfacet
  facet normal 0.994521 0.104533 0
    outer loop
      vertex 29.3444 6.23735 -10
      vertex 30 0 10
      vertex 30 0 -10
    endloop
  endfacet
  facet normal 0.866024 0.500003 0
    outer loop
      vertex 27.4064 12.2021 10
      vertex 24.2705 17.6336 -10
      vertex 24.2705 17.6336 10
    endloop
  endfacet
  facet normal 0.866024 0.500003 0
    outer loop
      vertex 24.2705 17.6336 -10
      vertex 27.4064 12.2021 10
      vertex 27.4064 12.2021 -10
    endloop
  endfacet
  facet normal 0.95106 -0.309008 0
    outer loop
      vertex 27.4064 -12.2021 10
      vertex 29.3444 -6.23735 -10
      vertex 29.3444 -6.23735 10
    endloop
  endfacet
  facet normal 0.95106 -0.309008 0
    outer loop
      vertex 29.3444 -6.23735 -10
      vertex 27.4064 -12.2021 10
      vertex 27.4064 -12.2021 -10
    endloop
  endfacet
  facet normal -0.587795 0.80901 0
    outer loop
      vertex -15 25.9808 -10
      vertex -20.0739 22.2943 10
      vertex -15 25.9808 10
    endloop
  endfacet
  facet normal -0.587795 0.80901 0
    outer loop
      vertex -20.0739 22.2943 10
      vertex -15 25.9808 -10
      vertex -20.0739 22.2943 -10
    endloop
  endfacet
  facet normal 0.587795 -0.80901 0
    outer loop
      vertex 15 -25.9808 -10
      vertex 20.0739 -22.2943 10
      vertex 15 -25.9808 10
    endloop
  endfacet
  facet normal 0.587795 -0.80901 0
    outer loop
      vertex 20.0739 -22.2943 10
      vertex 15 -25.9808 -10
      vertex 20.0739 -22.2943 -10
    endloop
  endfacet
  facet normal 0.743138 -0.669138 0
    outer loop
      vertex 20.0739 -22.2943 10
      vertex 24.2705 -17.6336 -10
      vertex 24.2705 -17.6336 10
    endloop
  endfacet
  facet normal 0.743138 -0.669138 0
    outer loop
      vertex 24.2705 -17.6336 -10
      vertex 20.0739 -22.2943 10
      vertex 20.0739 -22.2943 -10
    endloop
  endfacet
  facet normal 0.994521 -0.104533 0
    outer loop
      vertex 29.3444 -6.23735 10
      vertex 30 0 -10
      vertex 30 0 10
    endloop
  endfacet
  facet normal 0.994521 -0.104533 0
    outer loop
      vertex 30 0 -10
      vertex 29.3444 -6.23735 10
      vertex 29.3444 -6.23735 -10
    endloop
  endfacet
  facet normal -0.406732 -0.913547 0
    outer loop
      vertex -15 -25.9808 -10
      vertex -9.27051 -28.5317 10
      vertex -15 -25.9808 10
    endloop
  endfacet
  facet normal -0.406732 -0.913547 -0
    outer loop
      vertex -9.27051 -28.5317 10
      vertex -15 -25.9808 -10
      vertex -9.27051 -28.5317 -10
    endloop
  endfacet
  facet normal 0.406732 0.913547 -0
    outer loop
      vertex 15 25.9808 -10
      vertex 9.27051 28.5317 10
      vertex 15 25.9808 10
    endloop
  endfacet
  facet normal 0.406732 0.913547 0
    outer loop
      vertex 9.27051 28.5317 10
      vertex 15 25.9808 -10
      vertex 9.27051 28.5317 -10
    endloop
  endfacet
  facet normal 0.743138 0.669138 0
    outer loop
      vertex 24.2705 17.6336 10
      vertex 20.0739 22.2943 -10
      vertex 20.0739 22.2943 10
    endloop
  endfacet
  facet normal 0.743138 0.669138 0
    outer loop
      vertex 20.0739 22.2943 -10
      vertex 24.2705 17.6336 10
      vertex 24.2705 17.6336 -10
    endloop
  endfacet
  facet normal -0.587795 -0.80901 0
    outer loop
      vertex -20.0739 -22.2943 -10
      vertex -15 -25.9808 10
      vertex -20.0739 -22.2943 10
    endloop
  endfacet
  facet normal -0.587795 -0.80901 -0
    outer loop
      vertex -15 -25.9808 10
      vertex -20.0739 -22.2943 -10
      vertex -15 -25.9808 -10
    endloop
  endfacet
  facet normal -0.743138 0.669138 0
    outer loop
      vertex -24.2705 17.6336 -10
      vertex -20.0739 22.2943 10
      vertex -20.0739 22.2943 -10
    endloop
  endfacet
  facet normal -0.743138 0.669138 0
    outer loop
      vertex -20.0739 22.2943 10
      vertex -24.2705 17.6336 -10
      vertex -24.2705 17.6336 10
    endloop
  endfacet
  facet normal 0 1 -0
    outer loop
      vertex 3.13585 29.8357 -10
      vertex -3.13585 29.8357 10
      vertex 3.13585 29.8357 10
    endloop
  endfacet
  facet normal 0 1 0
    outer loop
      vertex -3.13585 29.8357 10
      vertex 3.13585 29.8357 -10
      vertex -3.13585 29.8357 -10
    endloop
  endfacet
  facet normal 0.406732 -0.913547 0
    outer loop
      vertex 9.27051 -28.5317 -10
      vertex 15 -25.9808 10
      vertex 9.27051 -28.5317 10
    endloop
  endfacet
  facet normal 0.406732 -0.913547 0
    outer loop
      vertex 15 -25.9808 10
      vertex 9.27051 -28.5317 -10
      vertex 15 -25.9808 -10
    endloop
  endfacet
  facet normal 0.207917 -0.978146 0
    outer loop
      vertex 3.13585 -29.8357 -10
      vertex 9.27051 -28.5317 10
      vertex 3.13585 -29.8357 10
    endloop
  endfacet
  facet normal 0.207917 -0.978146 0
    outer loop
      vertex 9.27051 -28.5317 10
      vertex 3.13585 -29.8357 -10
      vertex 9.27051 -28.5317 -10
    endloop
  endfacet
  facet normal -0.95106 0.309008 0
    outer loop
      vertex -29.3444 6.23735 -10
      vertex -27.4064 12.2021 10
      vertex -27.4064 12.2021 -10
    endloop
  endfacet
  facet normal -0.95106 0.309008 0
    outer loop
      vertex -27.4064 12.2021 10
      vertex -29.3444 6.23735 -10
      vertex -29.3444 6.23735 10
    endloop
  endfacet
  facet normal -0.95106 -0.309008 0
    outer loop
      vertex -27.4064 -12.2021 -10
      vertex -29.3444 -6.23735 10
      vertex -29.3444 -6.23735 -10
    endloop
  endfacet
  facet normal -0.95106 -0.309008 0
    outer loop
      vertex -29.3444 -6.23735 10
      vertex -27.4064 -12.2021 -10
      vertex -27.4064 -12.2021 10
    endloop
  endfacet
  facet normal -0.406732 0.913547 0
    outer loop
      vertex -9.27051 28.5317 -10
      vertex -15 25.9808 10
      vertex -9.27051 28.5317 10
    endloop
  endfacet
  facet normal -0.406732 0.913547 0
    outer loop
      vertex -15 25.9808 10
      vertex -9.27051 28.5317 -10
      vertex -15 25.9808 -10
    endloop
  endfacet
  facet normal -0.207917 -0.978146 0
    outer loop
      vertex -9.27051 -28.5317 -10
      vertex -3.13585 -29.8357 10
      vertex -9.27051 -28.5317 10
    endloop
  endfacet
  facet normal -0.207917 -0.978146 -0
    outer loop
      vertex -3.13585 -29.8357 10
      vertex -9.27051 -28.5317 -10
      vertex -3.13585 -29.8357 -10
    endloop
  endfacet
  facet normal 0.207917 0.978146 -0
    outer loop
      vertex 9.27051 28.5317 -10
      vertex 3.13585 29.8357 10
      vertex 9.27051 28.5317 10
    endloop
  endfacet
  facet normal 0.207917 0.978146 0
    outer loop
      vertex 3.13585 29.8357 10
      vertex 9.27051 28.5317 -10
      vertex 3.13585 29.8357 -10
    endloop
  endfacet
  facet normal -0.994521 -0.104533 0
    outer loop
      vertex -29.3444 -6.23735 -10
      vertex -30 0 10
      vertex -30 0 -10
    endloop
  endfacet
  facet normal -0.994521 -0.104533 0
    outer loop
      vertex -30 0 10
      vertex -29.3444 -6.23735 -10
      vertex -29.3444 -6.23735 10
    endloop
  endfacet
  facet normal -0.994521 0.104533 0
    outer loop
      vertex -30 0 -10
      vertex -29.3444 6.23735 10
      vertex -29.3444 6.23735 -10
    endloop
  endfacet
  facet normal -0.994521 0.104533 0
    outer loop
      vertex -29.3444 6.23735 10
      vertex -30 0 -10
      vertex -30 0 10
    endloop
  endfacet
  facet normal -0.866024 -0.500003 0
    outer loop
      vertex -24.2705 -17.6336 -10
      vertex -27.4064 -12.2021 10
      vertex -27.4064 -12.2021 -10
    endloop
  endfacet
  facet normal -0.866024 -0.500003 0
    outer loop
      vertex -27.4064 -12.2021 10
      vertex -24.2705 -17.6336 -10
      vertex -24.2705 -17.6336 10
    endloop
  endfacet
  facet normal -0.866024 0.500003 0
    outer loop
      vertex -27.4064 12.2021 -10
      vertex -24.2705 17.6336 10
      vertex -24.2705 17.6336 -10
    endloop
  endfacet
  facet normal -0.866024 0.500003 0
    outer loop
      vertex -24.2705 17.6336 10
      vertex -27.4064 12.2021 -10
      vertex -27.4064 12.2021 10
    endloop
  endfacet
  facet normal 0.866024 -0.500003 0
    outer loop
      vertex 24.2705 -17.6336 10
      vertex 27.4064 -12.2021 -10
      vertex 27.4064 -12.2021 10
    endloop
  endfacet
  facet normal 0.866024 -0.500003 0
    outer loop
      vertex 27.4064 -12.2021 -10
      vertex 24.2705 -17.6336 10
      vertex 24.2705 -17.6336 -10
    endloop
  endfacet
  facet normal 0.587795 0.80901 -0
    outer loop
      vertex 20.0739 22.2943 -10
      vertex 15 25.9808 10
      vertex 20.0739 22.2943 10
    endloop
  endfacet
  facet normal 0.587795 0.80901 0
    outer loop
      vertex 15 25.9808 10
      vertex 20.0739 22.2943 -10
      vertex 15 25.9808 -10
    endloop
  endfacet
  facet normal -0.207917 0.978146 0
    outer loop
      vertex -3.13585 29.8357 -10
      vertex -9.27051 28.5317 10
      vertex -3.13585 29.8357 10
    endloop
  endfacet
  facet normal -0.207917 0.978146 0
    outer loop
      vertex -9.27051 28.5317 10
      vertex -3.13585 29.8357 -10
      vertex -9.27051 28.5317 -10
    endloop
  endfacet
  facet normal 0 -1 0
    outer loop
      vertex -3.13585 -29.8357 -10
      vertex 3.13585 -29.8357 10
      vertex -3.13585 -29.8357 10
    endloop
  endfacet
  facet normal 0 -1 -0
    outer loop
      vertex 3.13585 -29.8357 10
      vertex -3.13585 -29.8357 -10
      vertex 3.13585 -29.8357 -10
    endloop
  endfacet
endsolid OpenSCAD_Model
